<mxfile host="app.diagrams.net" modified="2024-02-26T09:47:41.095Z" agent="Mozilla/5.0 (Macintosh; Intel Mac OS X 10_15_7) AppleWebKit/537.36 (KHTML, like Gecko) Chrome/122.0.0.0 Safari/537.36" etag="kjzMua_pka08vtTb4clX" version="23.1.6" type="github">
  <diagram name="第 1 页" id="vscoD34nkn4cC29ZpkoS">
    <mxGraphModel dx="1488" dy="817" grid="1" gridSize="10" guides="1" tooltips="1" connect="1" arrows="1" fold="1" page="1" pageScale="1" pageWidth="827" pageHeight="1169" math="0" shadow="0">
      <root>
        <mxCell id="0" />
        <mxCell id="1" parent="0" />
        <mxCell id="9XMKBq4BbX7aeuvjxPOY-3" value="" style="rounded=0;whiteSpace=wrap;html=1;fillColor=#E1D5E7;" vertex="1" parent="1">
          <mxGeometry x="160" y="290" width="580" height="250" as="geometry" />
        </mxCell>
        <mxCell id="9XMKBq4BbX7aeuvjxPOY-16" style="edgeStyle=orthogonalEdgeStyle;rounded=0;orthogonalLoop=1;jettySize=auto;html=1;exitX=0.5;exitY=1;exitDx=0;exitDy=0;entryX=0.5;entryY=0;entryDx=0;entryDy=0;" edge="1" parent="1" source="9XMKBq4BbX7aeuvjxPOY-1" target="9XMKBq4BbX7aeuvjxPOY-6">
          <mxGeometry relative="1" as="geometry" />
        </mxCell>
        <mxCell id="9XMKBq4BbX7aeuvjxPOY-1" value="PacketResponder 1 for block blk_387878213782378812 terminating" style="rounded=0;whiteSpace=wrap;html=1;" vertex="1" parent="1">
          <mxGeometry x="270" y="240" width="380" height="40" as="geometry" />
        </mxCell>
        <mxCell id="9XMKBq4BbX7aeuvjxPOY-2" value="Input" style="rounded=0;whiteSpace=wrap;html=1;verticalAlign=middle;horizontal=0;" vertex="1" parent="1">
          <mxGeometry x="250" y="240" width="20" height="40" as="geometry" />
        </mxCell>
        <mxCell id="9XMKBq4BbX7aeuvjxPOY-5" value="Preprocessing" style="text;html=1;align=center;verticalAlign=middle;whiteSpace=wrap;rounded=0;fontSize=14;" vertex="1" parent="1">
          <mxGeometry x="170" y="300" width="110" height="30" as="geometry" />
        </mxCell>
        <mxCell id="9XMKBq4BbX7aeuvjxPOY-13" value="" style="edgeStyle=orthogonalEdgeStyle;rounded=0;orthogonalLoop=1;jettySize=auto;html=1;" edge="1" parent="1" source="9XMKBq4BbX7aeuvjxPOY-6" target="9XMKBq4BbX7aeuvjxPOY-10">
          <mxGeometry relative="1" as="geometry" />
        </mxCell>
        <mxCell id="9XMKBq4BbX7aeuvjxPOY-6" value="&lt;font color=&quot;#d28e19&quot;&gt;[PacketResponder],&lt;/font&gt; [1], [for], [block],&amp;nbsp;&lt;font color=&quot;#67ab9f&quot;&gt;[blk_387878213782378812],&lt;/font&gt; [terminating]" style="rounded=1;whiteSpace=wrap;html=1;" vertex="1" parent="1">
          <mxGeometry x="210" y="340" width="500" height="40" as="geometry" />
        </mxCell>
        <mxCell id="9XMKBq4BbX7aeuvjxPOY-7" value="Delimiter [&#39;,!?=&#39;]" style="text;html=1;align=center;verticalAlign=middle;whiteSpace=wrap;rounded=0;" vertex="1" parent="1">
          <mxGeometry x="603" y="316" width="110" height="30" as="geometry" />
        </mxCell>
        <mxCell id="9XMKBq4BbX7aeuvjxPOY-8" value="&lt;font color=&quot;#d28e19&quot;&gt;[PacketResponder],&lt;/font&gt; [1], [for], &lt;font color=&quot;#ea6b66&quot;&gt;[MASK]&lt;/font&gt;,&amp;nbsp;&lt;font color=&quot;#67ab9f&quot;&gt;[blk_387878213782378812],&lt;/font&gt; [terminating]" style="rounded=1;whiteSpace=wrap;html=1;" vertex="1" parent="1">
          <mxGeometry x="210" y="480" width="500" height="40" as="geometry" />
        </mxCell>
        <mxCell id="9XMKBq4BbX7aeuvjxPOY-9" value="WordPiece" style="text;html=1;align=center;verticalAlign=middle;whiteSpace=wrap;rounded=0;" vertex="1" parent="1">
          <mxGeometry x="616" y="387" width="110" height="30" as="geometry" />
        </mxCell>
        <mxCell id="9XMKBq4BbX7aeuvjxPOY-10" value="&lt;font color=&quot;#d28e19&quot;&gt;[Packet,##res,##pon,##der],&lt;/font&gt; [1], [for], [block],&amp;nbsp;&lt;font color=&quot;#67ab9f&quot;&gt;[b,##lk, 38,##78,...],&lt;/font&gt; [terminating]" style="rounded=1;whiteSpace=wrap;html=1;" vertex="1" parent="1">
          <mxGeometry x="210" y="410" width="500" height="40" as="geometry" />
        </mxCell>
        <mxCell id="9XMKBq4BbX7aeuvjxPOY-12" value="Random mask" style="text;html=1;align=center;verticalAlign=middle;whiteSpace=wrap;rounded=0;" vertex="1" parent="1">
          <mxGeometry x="608" y="456" width="110" height="30" as="geometry" />
        </mxCell>
        <mxCell id="9XMKBq4BbX7aeuvjxPOY-14" value="" style="edgeStyle=orthogonalEdgeStyle;rounded=0;orthogonalLoop=1;jettySize=auto;html=1;" edge="1" parent="1">
          <mxGeometry relative="1" as="geometry">
            <mxPoint x="459.83" y="450" as="sourcePoint" />
            <mxPoint x="459.83" y="480" as="targetPoint" />
          </mxGeometry>
        </mxCell>
        <mxCell id="9XMKBq4BbX7aeuvjxPOY-17" value="" style="rounded=0;whiteSpace=wrap;html=1;fillColor=#D5E8D4;" vertex="1" parent="1">
          <mxGeometry x="160" y="600" width="580" height="180" as="geometry" />
        </mxCell>
        <mxCell id="9XMKBq4BbX7aeuvjxPOY-18" style="edgeStyle=orthogonalEdgeStyle;rounded=0;orthogonalLoop=1;jettySize=auto;html=1;exitX=0.5;exitY=1;exitDx=0;exitDy=0;entryX=0.5;entryY=0;entryDx=0;entryDy=0;" edge="1" parent="1" source="9XMKBq4BbX7aeuvjxPOY-19" target="9XMKBq4BbX7aeuvjxPOY-23">
          <mxGeometry relative="1" as="geometry" />
        </mxCell>
        <mxCell id="9XMKBq4BbX7aeuvjxPOY-19" value="PacketResponder 1 for block blk_387878213782378812 terminating" style="rounded=0;whiteSpace=wrap;html=1;" vertex="1" parent="1">
          <mxGeometry x="270" y="550" width="380" height="40" as="geometry" />
        </mxCell>
        <mxCell id="9XMKBq4BbX7aeuvjxPOY-20" value="Input" style="rounded=0;whiteSpace=wrap;html=1;verticalAlign=middle;horizontal=0;" vertex="1" parent="1">
          <mxGeometry x="250" y="550" width="20" height="40" as="geometry" />
        </mxCell>
        <mxCell id="9XMKBq4BbX7aeuvjxPOY-21" value="Preprocessing" style="text;html=1;align=center;verticalAlign=middle;whiteSpace=wrap;rounded=0;fontSize=14;" vertex="1" parent="1">
          <mxGeometry x="170" y="610" width="110" height="30" as="geometry" />
        </mxCell>
        <mxCell id="9XMKBq4BbX7aeuvjxPOY-22" value="" style="edgeStyle=orthogonalEdgeStyle;rounded=0;orthogonalLoop=1;jettySize=auto;html=1;" edge="1" parent="1" source="9XMKBq4BbX7aeuvjxPOY-23" target="9XMKBq4BbX7aeuvjxPOY-27">
          <mxGeometry relative="1" as="geometry" />
        </mxCell>
        <mxCell id="9XMKBq4BbX7aeuvjxPOY-23" value="&lt;font color=&quot;#d28e19&quot;&gt;[PacketResponder],&lt;/font&gt; [1], [for], [block],&amp;nbsp;&lt;font color=&quot;#67ab9f&quot;&gt;[blk_387878213782378812],&lt;/font&gt; [terminating]" style="rounded=1;whiteSpace=wrap;html=1;" vertex="1" parent="1">
          <mxGeometry x="210" y="650" width="500" height="40" as="geometry" />
        </mxCell>
        <mxCell id="9XMKBq4BbX7aeuvjxPOY-24" value="Delimiter [&#39;,!?=&#39;]" style="text;html=1;align=center;verticalAlign=middle;whiteSpace=wrap;rounded=0;" vertex="1" parent="1">
          <mxGeometry x="603" y="626" width="110" height="30" as="geometry" />
        </mxCell>
        <mxCell id="9XMKBq4BbX7aeuvjxPOY-26" value="WordPiece" style="text;html=1;align=center;verticalAlign=middle;whiteSpace=wrap;rounded=0;" vertex="1" parent="1">
          <mxGeometry x="616" y="697" width="110" height="30" as="geometry" />
        </mxCell>
        <mxCell id="9XMKBq4BbX7aeuvjxPOY-27" value="&lt;font color=&quot;#d28e19&quot;&gt;[Packet,##res,##pon,##der],&lt;/font&gt; [1], [for], [block],&amp;nbsp;&lt;font color=&quot;#67ab9f&quot;&gt;[b,##lk, 38,##78,...],&lt;/font&gt; [terminating]" style="rounded=1;whiteSpace=wrap;html=1;" vertex="1" parent="1">
          <mxGeometry x="210" y="720" width="500" height="40" as="geometry" />
        </mxCell>
        <mxCell id="9XMKBq4BbX7aeuvjxPOY-30" value="&lt;font style=&quot;font-size: 14px;&quot;&gt;&lt;u&gt;Online Parsing&lt;/u&gt;&lt;/font&gt;" style="text;html=1;align=center;verticalAlign=middle;whiteSpace=wrap;rounded=0;" vertex="1" parent="1">
          <mxGeometry x="140" y="570" width="110" height="30" as="geometry" />
        </mxCell>
        <mxCell id="9XMKBq4BbX7aeuvjxPOY-31" value="&lt;font style=&quot;font-size: 14px;&quot;&gt;&lt;u&gt;Offline Parsing&lt;/u&gt;&lt;/font&gt;" style="text;html=1;align=center;verticalAlign=middle;whiteSpace=wrap;rounded=0;" vertex="1" parent="1">
          <mxGeometry x="140" y="260" width="110" height="30" as="geometry" />
        </mxCell>
      </root>
    </mxGraphModel>
  </diagram>
</mxfile>
